<svg id="kity_svg_6" xmlns="http://www.w3.org/2000/svg" xmlns:xlink="http://www.w3.org/1999/xlink" version="1.1" width="1509" height="1474" style="background: rgb(251, 251, 251); visibility: visible;" viewBox="0 0 1509 1474"><defs id="kity_defs_7"><linearGradient id="kity_linearGradient_17" x1="0" y1="0" x2="0" y2="1"><stop id="kity_stop_18" offset="0" stop-color="rgb(255, 255, 255)"></stop><stop id="kity_stop_19" offset="1" stop-color="rgb(204, 204, 204)"></stop></linearGradient><marker id="kity_marker_2" orient="auto" refX="6" refY="0" viewBox="-7 -7 14 14" markerWidth="7" markerHeight="7" markerUnits="userSpaceOnUse"><path id="kity_path_3" fill="rgb(115, 161, 191)" stroke="none" d="M6,0A6,6,0,1,1,-6,0A6,6,0,1,1,6,0"></path></marker></defs><g id="kity_g_8"><g id="minder1" text-rendering="optimize-speed"><g id="minder_connect_group1"><path id="kity_path_31" fill="none" stroke="rgb(115, 161, 191)" stroke-width="1" d="M320.5,739.5A418,589,0,0,1,738.5,150.5"></path><path id="kity_path_33" fill="none" stroke="rgb(115, 161, 191)" stroke-width="1" d="M945.5,150.5C965.5,150.5,965.5,34.5,985.5,34.5"></path><path id="kity_path_35" fill="none" stroke="rgb(115, 161, 191)" stroke-width="1" d="M945.5,150.5C965.5,150.5,965.5,90.5,985.5,90.5"></path><path id="kity_path_37" fill="none" stroke="rgb(115, 161, 191)" stroke-width="1" d="M945.5,150.5C965.5,150.5,965.5,146.5,985.5,146.5"></path><path id="kity_path_39" fill="none" stroke="rgb(115, 161, 191)" stroke-width="1" d="M945.5,150.5C965.5,150.5,965.5,266.5,985.5,266.5"></path><path id="kity_path_41" fill="none" stroke="rgb(115, 161, 191)" stroke-width="1" d="M320.5,739.5A418,259,0,0,1,738.5,480.5"></path><path id="kity_path_43" fill="none" stroke="rgb(115, 161, 191)" stroke-width="1" d="M889.5,480.5C909.5,480.5,909.5,396.5,929.5,396.5"></path><path id="kity_path_45" fill="none" stroke="rgb(115, 161, 191)" stroke-width="1" d="M889.5,480.5C909.5,480.5,909.5,452.5,929.5,452.5"></path><path id="kity_path_47" fill="none" stroke="rgb(115, 161, 191)" stroke-width="1" d="M889.5,480.5C909.5,480.5,909.5,508.5,929.5,508.5"></path><path id="kity_path_49" fill="none" stroke="rgb(115, 161, 191)" stroke-width="1" d="M889.5,480.5C909.5,480.5,909.5,564.5,929.5,564.5"></path><path id="kity_path_51" fill="none" stroke="rgb(115, 161, 191)" stroke-width="1" d="M320.5,739.5A418,25,0,0,1,738.5,714.5"></path><path id="kity_path_53" fill="none" stroke="rgb(115, 161, 191)" stroke-width="1" d="M890.5,714.5C910.5,714.5,910.5,630.5,930.5,630.5"></path><path id="kity_path_55" fill="none" stroke="rgb(115, 161, 191)" stroke-width="1" d="M890.5,714.5C910.5,714.5,910.5,686.5,930.5,686.5"></path><path id="kity_path_57" fill="none" stroke="rgb(115, 161, 191)" stroke-width="1" d="M890.5,714.5C910.5,714.5,910.5,742.5,930.5,742.5"></path><path id="kity_path_59" fill="none" stroke="rgb(115, 161, 191)" stroke-width="1" d="M890.5,714.5C910.5,714.5,910.5,798.5,930.5,798.5"></path><path id="kity_path_61" fill="none" stroke="rgb(115, 161, 191)" stroke-width="1" d="M320.5,739.5A418,267,0,0,0,738.5,1006.5"></path><path id="kity_path_63" fill="none" stroke="rgb(115, 161, 191)" stroke-width="1" d="M854.5,1006.5C874.5,1006.5,874.5,864.5,894.5,864.5"></path><path id="kity_path_65" fill="none" stroke="rgb(115, 161, 191)" stroke-width="1" d="M854.5,1006.5C874.5,1006.5,874.5,920.5,894.5,920.5"></path><path id="kity_path_67" fill="none" stroke="rgb(115, 161, 191)" stroke-width="1" d="M854.5,1006.5C874.5,1006.5,874.5,1034.5,894.5,1034.5"></path><path id="kity_path_69" fill="none" stroke="rgb(115, 161, 191)" stroke-width="1" d="M854.5,1006.5C874.5,1006.5,874.5,1148.5,894.5,1148.5"></path><path id="kity_path_71" fill="none" stroke="rgb(115, 161, 191)" stroke-width="1" d="M320.5,739.5A418,589,0,0,0,738.5,1328.5"></path><path id="kity_path_73" fill="none" stroke="rgb(115, 161, 191)" stroke-width="1" d="M870.5,1328.5C890.5,1328.5,890.5,1214.5,910.5,1214.5"></path><path id="kity_path_75" fill="none" stroke="rgb(115, 161, 191)" stroke-width="1" d="M870.5,1328.5C890.5,1328.5,890.5,1270.5,910.5,1270.5"></path><path id="kity_path_77" fill="none" stroke="rgb(115, 161, 191)" stroke-width="1" d="M870.5,1328.5C890.5,1328.5,890.5,1384.5,910.5,1384.5"></path><path id="kity_path_224" fill="none" stroke="rgb(115, 161, 191)" stroke-width="1" d="M1229.5,266.5C1249.5,266.5,1249.5,267,1269.5,267"></path></g><g id="minder_node1"><path id="node_outline1" fill="rgb(115, 161, 191)" stroke="rgb(115, 161, 191)" d="M25.5,715.5h590a5,5,0,0,1,5,5v38a5,5,0,0,1,-5,5h-590a5,5,0,0,1,-5,-5v-38a5,5,0,0,1,5,-5z" stroke-width="3"></path><g id="node_text1" fill="white"><text id="kity_text_22" text-rendering="inherit" font-size="24" dy=".8em" y="723.9000000953674" x="44.5">中国科技研发的趋势及其与西方发达国家之间的差距</text></g></g><g id="kity_g_12"><path id="kity_path_13" fill="none" stroke="none" d="M44.5,739.5h0v0h0z"></path></g><g id="kity_g_14"><path id="kity_path_15" fill="none" stroke="none" d="M44.5,739.5h0v0h0z"></path><path id="kity_path_16" fill="none" stroke="none"></path></g><g id="minder_node2"><g id="node_expander5" style="cursor: pointer;"><path id="kity_path_163" fill="white" stroke="gray" d="M739.5,150.5A6,6,0,1,1,727.5,150.5A6,6,0,1,1,739.5,150.5"></path><path id="kity_path_164" fill="none" stroke="gray" d="M729,150.5L738,150.5"></path></g><path id="node_outline6" fill="rgb(238, 243, 246)" stroke="rgb(115, 161, 191)" d="M743.5,135.5h199a3,3,0,0,1,3,3v24a3,3,0,0,1,-3,3h-199a3,3,0,0,1,-3,-3v-24a3,3,0,0,1,3,-3z" stroke-width="1"></path><g id="node_text6" fill="black"><text id="kity_text_87" text-rendering="inherit" font-size="18" dy=".8em" y="138.79999995231628" x="760.5">研发支出占GDP比重</text></g><image id="kity_image_222" xlink:href="https://kityminder-img.gz.bcebos.com/f3c2bf7c88cf908cbfc9ad7b44ce758f2603b7e6" x="743.5" y="10.5" width="200" height="126" display="none"></image></g><g id="minder_node3"><g id="node_expander1" style="cursor: pointer;" display="none"><path id="kity_path_151" fill="white" stroke="gray" d="M985.5,34.5A6,6,0,1,1,973.5,34.5A6,6,0,1,1,985.5,34.5"></path><path id="kity_path_152" fill="none" stroke="gray"></path></g><path id="node_outline2" fill="none" stroke="none" d="M990.5,21.5h222a5,5,0,0,1,5,5v16a5,5,0,0,1,-5,5h-222a5,5,0,0,1,-5,-5v-16a5,5,0,0,1,5,-5z"></path><g id="node_text2" fill="black"><text id="kity_text_79" text-rendering="inherit" font-size="16" dy=".8em" y="24.09999990463257" x="995.5">研发支出占GDP比重相对较低</text></g></g><g id="minder_node4"><g id="node_expander2" style="cursor: pointer;" display="none"><path id="kity_path_154" fill="white" stroke="gray" d="M985.5,90.5A6,6,0,1,1,973.5,90.5A6,6,0,1,1,985.5,90.5"></path><path id="kity_path_155" fill="none" stroke="gray"></path></g><path id="node_outline3" fill="none" stroke="none" d="M990.5,77.5h203a5,5,0,0,1,5,5v16a5,5,0,0,1,-5,5h-203a5,5,0,0,1,-5,-5v-16a5,5,0,0,1,5,-5z" stroke-width="3"></path><g id="node_text3" fill="black"><text id="kity_text_81" text-rendering="inherit" font-size="16" dy=".8em" y="80.09999990463257" x="995.5">科技研发投入开始逐步增加</text></g></g><g id="minder_node5"><g id="node_expander3" style="cursor: pointer;" display="none"><path id="kity_path_157" fill="white" stroke="gray" d="M985.5,146.5A6,6,0,1,1,973.5,146.5A6,6,0,1,1,985.5,146.5"></path><path id="kity_path_158" fill="none" stroke="gray"></path></g><path id="node_outline4" fill="none" stroke="none" d="M990.5,133.5h395a5,5,0,0,1,5,5v16a5,5,0,0,1,-5,5h-395a5,5,0,0,1,-5,-5v-16a5,5,0,0,1,5,-5z" stroke-width="3"></path><g id="node_text4" fill="black"><text id="kity_text_83" text-rendering="inherit" font-size="16" dy=".8em" y="136.09999990463257" x="995.5">政府加大对科技创新的支持力度，研发支出进一步增加</text></g></g><g id="minder_node6"><g id="node_expander4" style="cursor: pointer;"><path id="kity_path_160" fill="white" stroke="gray" d="M985.5,266.5A6,6,0,1,1,973.5,266.5A6,6,0,1,1,985.5,266.5"></path><path id="kity_path_161" fill="none" stroke="gray" d="M975,266.5L984,266.5"></path></g><path id="node_outline5" fill="none" stroke="none" d="M990.5,253.5h234a5,5,0,0,1,5,5v16a5,5,0,0,1,-5,5h-234a5,5,0,0,1,-5,-5v-16a5,5,0,0,1,5,-5z" stroke-width="3"></path><g id="node_text5" fill="black"><text id="kity_text_85" text-rendering="inherit" font-size="16" dy=".8em" y="256.09999990463257" x="995.5">中国成为全球第二大研发支出国</text></g></g><g id="minder_node7"><g id="node_expander10" style="cursor: pointer;"><path id="kity_path_178" fill="white" stroke="gray" d="M739.5,480.5A6,6,0,1,1,727.5,480.5A6,6,0,1,1,739.5,480.5"></path><path id="kity_path_179" fill="none" stroke="gray" d="M729,480.5L738,480.5"></path></g><path id="node_outline11" fill="rgb(238, 243, 246)" stroke="rgb(115, 161, 191)" d="M743.5,465.5h143a3,3,0,0,1,3,3v24a3,3,0,0,1,-3,3h-143a3,3,0,0,1,-3,-3v-24a3,3,0,0,1,3,-3z" stroke-width="1"></path><g id="node_text11" fill="black"><text id="kity_text_97" text-rendering="inherit" font-size="18" dy=".8em" y="468.7999999523163" x="760.5">专利申请数量</text></g></g><g id="minder_node8"><g id="node_expander6" style="cursor: pointer;" display="none"><path id="kity_path_166" fill="white" stroke="gray" d="M929.5,396.5A6,6,0,1,1,917.5,396.5A6,6,0,1,1,929.5,396.5"></path><path id="kity_path_167" fill="none" stroke="gray"></path></g><path id="node_outline7" fill="none" stroke="none" d="M934.5,383.5h346a5,5,0,0,1,5,5v16a5,5,0,0,1,-5,5h-346a5,5,0,0,1,-5,-5v-16a5,5,0,0,1,5,-5z"></path><g id="node_text7" fill="black"><text id="kity_text_89" text-rendering="inherit" font-size="16" dy=".8em" y="386.09999990463257" x="939.5">申请数量较少，在国际专利申请中处于较低水平</text></g></g><g id="minder_node9"><g id="node_expander7" style="cursor: pointer;" display="none"><path id="kity_path_169" fill="white" stroke="gray" d="M929.5,452.5A6,6,0,1,1,917.5,452.5A6,6,0,1,1,929.5,452.5"></path><path id="kity_path_170" fill="none" stroke="gray"></path></g><path id="node_outline8" fill="none" stroke="none" d="M934.5,439.5h187a5,5,0,0,1,5,5v16a5,5,0,0,1,-5,5h-187a5,5,0,0,1,-5,-5v-16a5,5,0,0,1,5,-5z"></path><g id="node_text8" fill="black"><text id="kity_text_91" text-rendering="inherit" font-size="16" dy=".8em" y="442.09999990463257" x="939.5">逐步增加，专利排名上升</text></g></g><g id="minder_node10"><g id="node_expander8" style="cursor: pointer;" display="none"><path id="kity_path_172" fill="white" stroke="gray" d="M929.5,508.5A6,6,0,1,1,917.5,508.5A6,6,0,1,1,929.5,508.5"></path><path id="kity_path_173" fill="none" stroke="gray"></path></g><path id="node_outline9" fill="none" stroke="none" d="M934.5,495.5h155a5,5,0,0,1,5,5v16a5,5,0,0,1,-5,5h-155a5,5,0,0,1,-5,-5v-16a5,5,0,0,1,5,-5z"></path><g id="node_text9" fill="black"><text id="kity_text_93" text-rendering="inherit" font-size="16" dy=".8em" y="498.09999990463257" x="939.5">成为专利申请量大国</text></g></g><g id="minder_node11"><g id="node_expander9" style="cursor: pointer;" display="none"><path id="kity_path_175" fill="white" stroke="gray" d="M929.5,564.5A6,6,0,1,1,917.5,564.5A6,6,0,1,1,929.5,564.5"></path><path id="kity_path_176" fill="none" stroke="gray" d="M919,564.5L928,564.5"></path></g><path id="node_outline10" fill="none" stroke="none" d="M934.5,551.5h268a5,5,0,0,1,5,5v16a5,5,0,0,1,-5,5h-268a5,5,0,0,1,-5,-5v-16a5,5,0,0,1,5,-5z" stroke-width="3"></path><g id="node_text10" fill="black"><text id="kity_text_95" text-rendering="inherit" font-size="16" dy=".8em" y="554.0999999046326" x="939.5">成为世界上专利申请数量最多的国家</text></g></g><g id="minder_node12"><g id="node_expander15" style="cursor: pointer;"><path id="kity_path_193" fill="white" stroke="gray" d="M739.5,714.5A6,6,0,1,1,727.5,714.5A6,6,0,1,1,739.5,714.5"></path><path id="kity_path_194" fill="none" stroke="gray" d="M729,714.5L738,714.5"></path></g><path id="node_outline16" fill="rgb(238, 243, 246)" stroke="rgb(115, 161, 191)" d="M743.5,699.5h144a3,3,0,0,1,3,3v24a3,3,0,0,1,-3,3h-144a3,3,0,0,1,-3,-3v-24a3,3,0,0,1,3,-3z" stroke-width="1"></path><g id="node_text16" fill="black"><text id="kity_text_107" text-rendering="inherit" font-size="18" dy=".8em" y="702.7999999523163" x="760.5">科研投放领域</text></g></g><g id="minder_node13"><g id="node_expander11" style="cursor: pointer;" display="none"><path id="kity_path_181" fill="white" stroke="gray" d="M930.5,630.5A6,6,0,1,1,918.5,630.5A6,6,0,1,1,930.5,630.5"></path><path id="kity_path_182" fill="none" stroke="gray"></path></g><path id="node_outline12" fill="none" stroke="none" d="M935.5,617.5h235a5,5,0,0,1,5,5v16a5,5,0,0,1,-5,5h-235a5,5,0,0,1,-5,-5v-16a5,5,0,0,1,5,-5z" stroke-width="3"></path><g id="node_text12" fill="black"><text id="kity_text_99" text-rendering="inherit" font-size="16" dy=".8em" y="620.0999999046326" x="940.5">集中在基础研究和技术引进上面</text></g></g><g id="minder_node14"><g id="node_expander12" style="cursor: pointer;" display="none"><path id="kity_path_184" fill="white" stroke="gray" d="M930.5,686.5A6,6,0,1,1,918.5,686.5A6,6,0,1,1,930.5,686.5"></path><path id="kity_path_185" fill="none" stroke="gray"></path></g><path id="node_outline13" fill="none" stroke="none" d="M935.5,673.5h332a5,5,0,0,1,5,5v16a5,5,0,0,1,-5,5h-332a5,5,0,0,1,-5,-5v-16a5,5,0,0,1,5,-5z" stroke-width="3"></path><g id="node_text13" fill="black"><text id="kity_text_101" text-rendering="inherit" font-size="16" dy=".8em" y="676.0999999046326" x="940.5">开始鼓励高新技术产业的发展，投放领域扩大</text></g></g><g id="minder_node15"><g id="node_expander13" style="cursor: pointer;" display="none"><path id="kity_path_187" fill="white" stroke="gray" d="M930.5,742.5A6,6,0,1,1,918.5,742.5A6,6,0,1,1,930.5,742.5"></path><path id="kity_path_188" fill="none" stroke="gray"></path></g><path id="node_outline14" fill="none" stroke="none" d="M935.5,729.5h433a5,5,0,0,1,5,5v16a5,5,0,0,1,-5,5h-433a5,5,0,0,1,-5,-5v-16a5,5,0,0,1,5,-5z"></path><g id="node_text14" fill="black"><text id="kity_text_103" text-rendering="inherit" font-size="16" dy=".8em" y="732.0999999046326" x="940.5">领域进一步扩大， 包括信息技术、生物技术、新能源等领域</text></g></g><g id="minder_node16"><g id="node_expander14" style="cursor: pointer;" display="none"><path id="kity_path_190" fill="white" stroke="gray" d="M930.5,798.5A6,6,0,1,1,918.5,798.5A6,6,0,1,1,930.5,798.5"></path><path id="kity_path_191" fill="none" stroke="gray"></path></g><path id="node_outline15" fill="none" stroke="none" d="M935.5,785.5h524a5,5,0,0,1,5,5v16a5,5,0,0,1,-5,5h-524a5,5,0,0,1,-5,-5v-16a5,5,0,0,1,5,-5z" stroke-width="3"></path><g id="node_text15" fill="black"><text id="kity_text_105" text-rendering="inherit" font-size="16" dy=".8em" y="788.0999999046326" x="940.5">更大程度的拓展，包括人工智能、大数据、云计算、生物医药等前沿领域</text></g></g><g id="minder_node17"><g id="node_expander20" style="cursor: pointer;"><path id="kity_path_208" fill="white" stroke="gray" d="M739.5,1006.5A6,6,0,1,1,727.5,1006.5A6,6,0,1,1,739.5,1006.5"></path><path id="kity_path_209" fill="none" stroke="gray" d="M729,1006.5L738,1006.5"></path></g><path id="node_outline21" fill="rgb(238, 243, 246)" stroke="rgb(115, 161, 191)" d="M743.5,991.5h108a3,3,0,0,1,3,3v24a3,3,0,0,1,-3,3h-108a3,3,0,0,1,-3,-3v-24a3,3,0,0,1,3,-3z" stroke-width="1"></path><g id="node_text21" fill="black"><text id="kity_text_117" text-rendering="inherit" font-size="18" dy=".8em" y="994.7999999523163" x="760.5">研发主体</text></g></g><g id="minder_node18"><g id="node_expander16" style="cursor: pointer;" display="none"><path id="kity_path_196" fill="white" stroke="gray" d="M894.5,864.5A6,6,0,1,1,882.5,864.5A6,6,0,1,1,894.5,864.5"></path><path id="kity_path_197" fill="none" stroke="gray"></path></g><path id="node_outline17" fill="none" stroke="none" d="M899.5,851.5h202a5,5,0,0,1,5,5v16a5,5,0,0,1,-5,5h-202a5,5,0,0,1,-5,-5v-16a5,5,0,0,1,5,-5z" stroke-width="3"></path><g id="node_text17" fill="black"><text id="kity_text_109" text-rendering="inherit" font-size="16" dy=".8em" y="854.0999999046326" x="904.5">以国有企业和研究机构为主</text></g></g><g id="minder_node19"><g id="node_expander17" style="cursor: pointer;" display="none"><path id="kity_path_199" fill="white" stroke="gray" d="M894.5,920.5A6,6,0,1,1,882.5,920.5A6,6,0,1,1,894.5,920.5"></path><path id="kity_path_200" fill="none" stroke="gray"></path></g><path id="node_outline18" fill="none" stroke="none" d="M899.5,907.5h442a5,5,0,0,1,5,5v16a5,5,0,0,1,-5,5h-442a5,5,0,0,1,-5,-5v-16a5,5,0,0,1,5,-5z" stroke-width="3"></path><g id="node_text18" fill="black"><text id="kity_text_111" text-rendering="inherit" font-size="16" dy=".8em" y="910.0999999046326" x="904.5">主体逐渐多元化，民营企业开始在科技研发中发挥更大的作用</text></g></g><g id="minder_node20"><g id="node_expander18" style="cursor: pointer;" display="none"><path id="kity_path_202" fill="white" stroke="gray" d="M894.5,1034.5A6,6,0,1,1,882.5,1034.5A6,6,0,1,1,894.5,1034.5"></path><path id="kity_path_203" fill="none" stroke="gray"></path></g><path id="node_outline19" fill="none" stroke="none" d="M899.5,963.5h540a5,5,0,0,1,5,5v132a5,5,0,0,1,-5,5h-540a5,5,0,0,1,-5,-5v-132a5,5,0,0,1,5,-5z" stroke-width="3"></path><g id="node_text19" fill="black"><text id="kity_text_113" text-rendering="inherit" font-size="16" dy=".8em" y="1082.0999999046326" x="904.5">科研主体进一步扩大，包含高校、科研院所、国企、外资企业、民营企业等</text></g><image id="kity_image_241" xlink:href="https://kityminder-img.gz.bcebos.com/728de173b832b1481f317c05e0106c4428231536" x="1069.5" y="968.5" width="200" height="111"></image></g><g id="minder_node21"><g id="node_expander19" style="cursor: pointer;" display="none"><path id="kity_path_205" fill="white" stroke="gray" d="M894.5,1148.5A6,6,0,1,1,882.5,1148.5A6,6,0,1,1,894.5,1148.5"></path><path id="kity_path_206" fill="none" stroke="gray"></path></g><path id="node_outline20" fill="none" stroke="none" d="M899.5,1135.5h76a5,5,0,0,1,5,5v16a5,5,0,0,1,-5,5h-76a5,5,0,0,1,-5,-5v-16a5,5,0,0,1,5,-5z" stroke-width="3"></path><g id="node_text20" fill="black"><text id="kity_text_115" text-rendering="inherit" font-size="16" dy=".8em" y="1138.0999999046326" x="904.5">更趋多元</text></g></g><g id="minder_node22"><g id="node_expander24" style="cursor: pointer;"><path id="kity_path_220" fill="white" stroke="gray" d="M739.5,1328.5A6,6,0,1,1,727.5,1328.5A6,6,0,1,1,739.5,1328.5"></path><path id="kity_path_221" fill="none" stroke="gray" d="M729,1328.5L738,1328.5"></path></g><path id="node_outline25" fill="rgb(238, 243, 246)" stroke="rgb(115, 161, 191)" d="M743.5,1313.5h124a3,3,0,0,1,3,3v24a3,3,0,0,1,-3,3h-124a3,3,0,0,1,-3,-3v-24a3,3,0,0,1,3,-3z" stroke-width="1"></path><g id="node_text25" fill="black"><text id="kity_text_125" text-rendering="inherit" font-size="18" dy=".8em" y="1316.7999999523163" x="760.5">独角兽企业</text></g></g><g id="minder_node23"><g id="node_expander21" style="cursor: pointer;" display="none"><path id="kity_path_211" fill="white" stroke="gray" d="M910.5,1214.5A6,6,0,1,1,898.5,1214.5A6,6,0,1,1,910.5,1214.5"></path><path id="kity_path_212" fill="none" stroke="gray"></path></g><path id="node_outline22" fill="none" stroke="none" d="M915.5,1201.5h155a5,5,0,0,1,5,5v16a5,5,0,0,1,-5,5h-155a5,5,0,0,1,-5,-5v-16a5,5,0,0,1,5,-5z"></path><g id="node_text22" fill="black"><text id="kity_text_119" text-rendering="inherit" font-size="16" dy=".8em" y="1204.0999999046326" x="920.5">独角兽企业数量较少</text></g></g><g id="minder_node24"><g id="node_expander22" style="cursor: pointer;" display="none"><path id="kity_path_214" fill="white" stroke="gray" d="M910.5,1270.5A6,6,0,1,1,898.5,1270.5A6,6,0,1,1,910.5,1270.5"></path><path id="kity_path_215" fill="none" stroke="gray"></path></g><path id="node_outline23" fill="none" stroke="none" d="M915.5,1257.5h363a5,5,0,0,1,5,5v16a5,5,0,0,1,-5,5h-363a5,5,0,0,1,-5,-5v-16a5,5,0,0,1,5,-5z"></path><g id="node_text23" fill="black"><text id="kity_text_121" text-rendering="inherit" font-size="16" dy=".8em" y="1260.0999999046326" x="920.5">数量逐渐增加，一些科技创新型企业开始展露头角</text></g></g><g id="minder_node25"><g id="node_expander23" style="cursor: pointer;" display="none"><path id="kity_path_217" fill="white" stroke="gray" d="M910.5,1384.5A6,6,0,1,1,898.5,1384.5A6,6,0,1,1,910.5,1384.5"></path><path id="kity_path_218" fill="none" stroke="gray"></path></g><path id="node_outline24" fill="none" stroke="rgb(57, 80, 96)" d="M915.5,1313.5h444a5,5,0,0,1,5,5v132a5,5,0,0,1,-5,5h-444a5,5,0,0,1,-5,-5v-132a5,5,0,0,1,5,-5z" stroke-width="3"></path><g id="node_text24" fill="black"><text id="kity_text_123" text-rendering="inherit" font-size="16" dy=".8em" y="1432.0999999046326" x="920.5">不断增加，中国已经成为全球独角兽企业数量最多的国家之一</text></g><image id="kity_image_242" xlink:href="https://kityminder-img.gz.bcebos.com/50aae21855781e061e980db14fba6a1c5a3c283d" x="1037.5" y="1318.5" width="200" height="111"></image></g><g id="minder_node26"><g id="node_expander25" style="cursor: pointer;" display="none"><path id="kity_path_229" fill="white" stroke="gray" d="M1269.5,267A6,6,0,1,1,1257.5,267A6,6,0,1,1,1269.5,267"></path><path id="kity_path_230" fill="none" stroke="gray"></path></g><path id="node_outline26" fill="none" stroke="none" d="M1274.5,190.5h210a5,5,0,0,1,5,5v143a5,5,0,0,1,-5,5h-210a5,5,0,0,1,-5,-5v-143a5,5,0,0,1,5,-5z" stroke-width="3"></path><g id="node_text26" fill="black"><text id="kity_text_226" text-rendering="inherit" font-size="12" dy=".8em" y="324.7000000476837" x="1378.5"> </text></g><image id="kity_image_231" xlink:href="https://kityminder-img.gz.bcebos.com/f3c2bf7c88cf908cbfc9ad7b44ce758f2603b7e6" x="1279.5" y="195.5" width="200" height="126"></image></g></g></g></svg>